<svg xmlns="http://www.w3.org/2000/svg" width="200" height="200" viewBox="0 0 200 200">
  <g fill="none" fill-rule="evenodd">
    <circle cx="100" cy="100" r="100" fill="#EDB135"/>
    <g transform="translate(40 66)">
      <rect width="72" height="40" y="14" fill="#FFF" rx="4"/>
      <rect width="117" height="37" x="1.5" y="15.5" stroke="#FFF" stroke-width="3" rx="4"/>
      <path fill="#FFF" stroke="#EDB135" stroke-width="5" d="M72.5 3.5h11v61h-11z"/>
      <g fill="#FFF">
        <path d="M68 0h7a3 3 0 0 1 3 3v3H68V0zM81 0h7v6H78V3a3 3 0 0 1 3-3z"/>
      </g>
      <g fill="#FFF">
        <path d="M68 67h7a3 3 0 0 0 3-3v-3H68v6zM81 67h7v-6H78v3a3 3 0 0 0 3 3z"/>
      </g>
    </g>
  </g>
</svg>
